# This file uses centimeters as units for non-parametric coordinates.

mtllib bolder.mtl
g default
v 1.769344 -0.100608 -3.064591
v -1.769342 -0.100608 -3.064592
v -3.538686 -0.100608 -0.000001
v -1.769343 -0.100608 3.064592
v 1.769343 -0.100608 3.064592
v 3.538686 -0.100608 0.000000
v 1.093515 0.633489 -1.894022
v -1.093514 0.633489 -1.894022
v -2.187028 0.633489 -0.000000
v -1.093514 0.633489 1.894022
v 1.093514 0.633489 1.894022
v 2.187028 0.633489 0.000000
v 0.000000 0.913889 0.000000
vt 0.000000 0.600000
vt 0.166667 0.600000
vt 0.333333 0.600000
vt 0.500000 0.600000
vt 0.666667 0.600000
vt 0.833333 0.600000
vt 1.000000 0.600000
vt 0.000000 0.800000
vt 0.166667 0.800000
vt 0.333333 0.800000
vt 0.500000 0.800000
vt 0.666667 0.800000
vt 0.833333 0.800000
vt 1.000000 0.800000
vt 0.083333 1.000000
vt 0.250000 1.000000
vt 0.416667 1.000000
vt 0.583333 1.000000
vt 0.750000 1.000000
vt 0.916667 1.000000
vn 0.238631 0.878761 -0.413321
vn -0.238631 0.878761 -0.413322
vn -0.202253 0.914536 -0.350312
vn 0.202253 0.914535 -0.350312
vn -0.477263 0.878761 -0.000000
vn -0.404506 0.914535 -0.000000
vn -0.238631 0.878761 0.413321
vn -0.202253 0.914535 0.350312
vn 0.238631 0.878761 0.413321
vn 0.202253 0.914535 0.350312
vn 0.477263 0.878761 0.000000
vn 0.404506 0.914535 0.000000
vn -0.000000 1.000000 0.000000
s 1
g pSphere1
usemtl initialShadingGroup
f 1/1/1 2/2/2 8/9/3 7/8/4
f 2/2/2 3/3/5 9/10/6 8/9/3
f 3/3/5 4/4/7 10/11/8 9/10/6
f 4/4/7 5/5/9 11/12/10 10/11/8
f 5/5/9 6/6/11 12/13/12 11/12/10
f 6/6/11 1/7/1 7/14/4 12/13/12
f 7/8/4 8/9/3 13/15/13
f 8/9/3 9/10/6 13/16/13
f 9/10/6 10/11/8 13/17/13
f 10/11/8 11/12/10 13/18/13
f 11/12/10 12/13/12 13/19/13
f 12/13/12 7/14/4 13/20/13
